# xmcd
#
# Track frame offsets: 
#        150
#        24158
#        47410
#        70783
#        93799
#        114868
#        134134
#        155321
#        177753
#        203802
#
# Disc length: 3041 seconds
#
# Revision: 2
# Processed by: cddbd v1.5.2PL0 Copyright (c) Steve Scherf et al.
# Submitted via: ExactAudioCopy v1.0b3
#
DISCID=740bdf0a
DTITLE=Nhu Quynh and Tuong Nguyen - Dieu Chua Dam Noi
DYEAR=1999
DGENRE=Pop
TTITLE0=Tuong Nguyen - Mat Nhau Roi
TTITLE1=Vi Trong Nghich Canh
TTITLE2=Tuong Nguyen - Dieu Chua Dam Noi
TTITLE3=Dung Trach Dieu Bong
TTITLE4=Tuong Nguyen - Khuya Nay Anh Di Roi
TTITLE5=Tuong Nguyen - Sao Em No Vo Tinh
TTITLE6=Tinh Nho Mau Quen
TTITLE7=Tuong Nguyen - Boi Bac
TTITLE8=Chim Sao Ngay Xua
TTITLE9=Tuong Nguyen - Tinh Xua Vung Dai
EXTD=
EXTT0=
EXTT1=
EXTT2=
EXTT3=
EXTT4=
EXTT5=
EXTT6=
EXTT7=
EXTT8=
EXTT9=
PLAYORDER=
